# xmcd
#
# Track frame offsets: 
#        150
#        19484
#        38242
#        62598
#        84495
#        105283
#        128847
#        152785
#        170273
#        191184
#
# Disc length: 2833 seconds
#
# Revision: 0
# Processed by: cddbd v1.5.2PL0 Copyright (c) Steve Scherf et al.
# Submitted via: ExactAudioCopyFreeDBPlugin 1.0
#
DISCID=7c0b0f0a
DTITLE=Billy Ocean - Here You Are
DYEAR=2013
DGENRE=Pop
TTITLE0=A Change Is Gonna Come
TTITLE1=Cry Me A River
TTITLE2=No Woman No Cry
TTITLE3=You Send Me
TTITLE4=Here You Are
TTITLE5=Having A Party
TTITLE6=It Was A Very Good Year
TTITLE7=Time And The River
TTITLE8=Foolish Things
TTITLE9=Here You Are (Acoustic Version)
EXTD=
EXTT0=
EXTT1=
EXTT2=
EXTT3=
EXTT4=
EXTT5=
EXTT6=
EXTT7=
EXTT8=
EXTT9=
PLAYORDER=
